# xmcd
#
# Track frame offsets: 
#        150
#        18127
#        32211
#        48835
#        61138
#        72217
#        94690
#        104631
#        119176
#        129061
#        143882
#
# Disc length: 2092 seconds
#
# Revision: 0
# Processed by: cddbd v1.5.2PL0 Copyright (c) Steve Scherf et al.
# Submitted via: ExactAudioCopy v1.1
#
DISCID=94082a0b
DTITLE=Houston Fearless  - Houston Fearless 
DYEAR=1968
DGENRE=Psychedelic Rock
TTITLE0=Not Foolin' Me
TTITLE1=His Eye Is On The Sparrow
TTITLE2=Only For You
TTITLE3=Blue Bones And Ashes
TTITLE4=Race With The Devil
TTITLE5=Mr. Soul
TTITLE6=What Are Those Things
TTITLE7=Knock Knock
TTITLE8=Joshua
TTITLE9=Love Has A Habit
TTITLE10=Hold Me
EXTD=
EXTT0=
EXTT1=
EXTT2=
EXTT3=
EXTT4=
EXTT5=
EXTT6=
EXTT7=
EXTT8=
EXTT9=
EXTT10=
PLAYORDER=
